<?xml version="1.0" encoding="UTF-8"?>
<svg width="700pt" height="700pt" version="1.1" viewBox="0 0 700 700" xmlns="http://www.w3.org/2000/svg" xmlns:xlink="http://www.w3.org/1999/xlink">
 <defs>
  <symbol id="z" overflow="visible">
   <path d="m2.3125-0.14062c-0.11719 0.0625-0.24219 0.10938-0.375 0.14062-0.125 0.03125-0.26172 0.046875-0.40625 0.046875-0.41797 0-0.75-0.11328-1-0.34375-0.24219-0.23828-0.35938-0.55469-0.35938-0.95312 0-0.40625 0.11719-0.72266 0.35938-0.95312 0.25-0.23828 0.58203-0.35938 1-0.35938 0.14453 0 0.28125 0.015625 0.40625 0.046875 0.13281 0.03125 0.25781 0.078125 0.375 0.14062v0.51562c-0.11719-0.082031-0.23438-0.14062-0.35938-0.17188-0.11719-0.039062-0.23438-0.0625-0.35938-0.0625-0.24219 0-0.42969 0.078125-0.5625 0.23438-0.125 0.14844-0.1875 0.35156-0.1875 0.60938 0 0.26172 0.0625 0.46484 0.1875 0.60938 0.13281 0.14844 0.32031 0.21875 0.5625 0.21875 0.125 0 0.24219-0.015625 0.35938-0.046875 0.125-0.039062 0.24219-0.10156 0.35938-0.1875z"/>
  </symbol>
  <symbol id="c" overflow="visible">
   <path d="m1.6875-1.375c-0.054688-0.019531-0.10547-0.035156-0.15625-0.046875-0.054688-0.019531-0.10547-0.03125-0.15625-0.03125-0.15625 0-0.27734 0.054687-0.35938 0.15625-0.085937 0.10547-0.125 0.24609-0.125 0.42188v0.875h-0.59375v-1.8906h0.59375v0.3125c0.082031-0.125 0.17188-0.21094 0.26562-0.26562 0.10156-0.0625 0.22266-0.09375 0.35938-0.09375 0.019531 0 0.039063 0.007812 0.0625 0.015625h0.10938z"/>
  </symbol>
  <symbol id="a" overflow="visible">
   <path d="m2.1719-0.95312v0.17188h-1.4062c0.007813 0.14844 0.054687 0.25781 0.14062 0.32812 0.09375 0.0625 0.21875 0.09375 0.375 0.09375 0.125 0 0.25391-0.015625 0.39062-0.046875 0.13281-0.039062 0.26953-0.097656 0.40625-0.17188v0.46875c-0.13672 0.054688-0.27734 0.089844-0.42188 0.10938-0.14844 0.03125-0.28906 0.046875-0.42188 0.046875-0.34375 0-0.61719-0.082031-0.8125-0.25-0.1875-0.17578-0.28125-0.42188-0.28125-0.73438s0.09375-0.55469 0.28125-0.73438c0.1875-0.17578 0.44531-0.26562 0.78125-0.26562 0.28906 0 0.52344 0.09375 0.70312 0.28125 0.17578 0.17969 0.26562 0.41406 0.26562 0.70312zm-0.625-0.20312c0-0.11328-0.03125-0.20312-0.09375-0.26562-0.0625-0.070313-0.15234-0.10938-0.26562-0.10938-0.11719 0-0.21094 0.039062-0.28125 0.10938-0.074219 0.0625-0.12109 0.15234-0.14062 0.26562z"/>
  </symbol>
  <symbol id="l" overflow="visible">
   <path d="m1.1406-0.84375c-0.125 0-0.22656 0.023438-0.29688 0.0625-0.0625 0.042969-0.09375 0.10547-0.09375 0.1875 0 0.074219 0.023438 0.13281 0.078125 0.17188 0.050781 0.042969 0.125 0.0625 0.21875 0.0625 0.11328 0 0.20703-0.035156 0.28125-0.10938 0.082031-0.082031 0.125-0.1875 0.125-0.3125v-0.0625zm0.92188-0.23438v1.0781h-0.60938v-0.28125c-0.085937 0.11719-0.17969 0.19922-0.28125 0.25-0.09375 0.050781-0.21484 0.078125-0.35938 0.078125-0.19922 0-0.35938-0.054688-0.48438-0.17188-0.125-0.11328-0.1875-0.25781-0.1875-0.4375 0-0.22656 0.078125-0.39062 0.23438-0.48438 0.15625-0.10156 0.39453-0.15625 0.71875-0.15625h0.35938v-0.046875c0-0.10156-0.042969-0.17578-0.125-0.21875-0.074219-0.039062-0.1875-0.0625-0.34375-0.0625-0.125 0-0.24609 0.015625-0.35938 0.046875-0.11719 0.023437-0.21875 0.058594-0.3125 0.10938v-0.46875c0.125-0.03125 0.25391-0.050781 0.39062-0.0625 0.13281-0.019531 0.26562-0.03125 0.39062-0.03125 0.34375 0 0.58594 0.070312 0.73438 0.20312 0.15625 0.13672 0.23438 0.35547 0.23438 0.65625z"/>
  </symbol>
  <symbol id="b" overflow="visible">
   <path d="m0.95312-2.4219v0.53125h0.625v0.4375h-0.625v0.79688c0 0.085938 0.015625 0.14062 0.046875 0.17188s0.097656 0.046875 0.20312 0.046875h0.3125v0.4375h-0.51562c-0.24219 0-0.41406-0.046875-0.51562-0.14062-0.09375-0.10156-0.14062-0.27344-0.14062-0.51562v-0.79688h-0.29688v-0.4375h0.29688v-0.53125z"/>
  </symbol>
  <symbol id="k" overflow="visible">
   <path d="m1.5781-1.6094v-1.0156h0.60938v2.625h-0.60938v-0.26562c-0.085937 0.10547-0.17969 0.18359-0.28125 0.23438-0.09375 0.050781-0.21094 0.078125-0.34375 0.078125-0.23047 0-0.42188-0.085938-0.57812-0.26562-0.14844-0.1875-0.21875-0.42578-0.21875-0.71875 0-0.28906 0.070312-0.53125 0.21875-0.71875 0.15625-0.1875 0.34766-0.28125 0.57812-0.28125 0.125 0 0.23828 0.027344 0.34375 0.078125 0.10156 0.054687 0.19531 0.13672 0.28125 0.25zm-0.40625 1.2188c0.13281 0 0.23438-0.046875 0.29688-0.14062 0.070312-0.09375 0.10938-0.22656 0.10938-0.40625 0-0.1875-0.039063-0.32812-0.10938-0.42188-0.0625-0.09375-0.16406-0.14062-0.29688-0.14062-0.125 0-0.22656 0.046875-0.29688 0.14062-0.0625 0.09375-0.09375 0.23438-0.09375 0.42188 0 0.17969 0.03125 0.3125 0.09375 0.40625 0.070312 0.09375 0.17188 0.14062 0.29688 0.14062z"/>
  </symbol>
  <symbol id="j" overflow="visible">
   <path d="m1.2969-0.39062c0.125 0 0.21875-0.046875 0.28125-0.14062 0.070313-0.09375 0.10938-0.22656 0.10938-0.40625 0-0.1875-0.039062-0.32812-0.10938-0.42188-0.0625-0.09375-0.15625-0.14062-0.28125-0.14062-0.13672 0-0.24219 0.054688-0.3125 0.15625-0.0625 0.09375-0.09375 0.23047-0.09375 0.40625 0 0.17969 0.03125 0.3125 0.09375 0.40625 0.070313 0.09375 0.17578 0.14062 0.3125 0.14062zm-0.40625-1.2188c0.082031-0.11328 0.17578-0.19531 0.28125-0.25 0.10156-0.050781 0.21875-0.078125 0.34375-0.078125 0.23828 0 0.42969 0.09375 0.57812 0.28125 0.14453 0.1875 0.21875 0.42969 0.21875 0.71875 0 0.29297-0.074219 0.53125-0.21875 0.71875-0.14844 0.17969-0.33984 0.26562-0.57812 0.26562-0.125 0-0.24219-0.027344-0.34375-0.078125-0.10547-0.050781-0.19922-0.12891-0.28125-0.23438v0.26562h-0.59375v-2.625h0.59375z"/>
  </symbol>
  <symbol id="i" overflow="visible">
   <path d="m0.046875-1.8906h0.59375l0.51562 1.2812 0.42188-1.2812h0.60938l-0.79688 2.0625c-0.074219 0.21875-0.16797 0.36719-0.28125 0.45312-0.10547 0.082031-0.24609 0.125-0.42188 0.125h-0.34375v-0.40625h0.1875c0.10156 0 0.17578-0.015625 0.21875-0.046875 0.050781-0.03125 0.085938-0.089844 0.10938-0.17188l0.03125-0.046875z"/>
  </symbol>
  <symbol id="h" overflow="visible">
   <path d="m1.5312 0.046875h-0.046875c-0.41797 0-0.74219-0.11328-0.96875-0.34375-0.23047-0.22656-0.34375-0.54688-0.34375-0.95312 0-0.41406 0.11328-0.73828 0.34375-0.96875 0.22656-0.22656 0.54688-0.34375 0.95312-0.34375s0.72266 0.11719 0.95312 0.34375c0.22656 0.23047 0.34375 0.55469 0.34375 0.96875 0 0.28125-0.0625 0.52734-0.1875 0.73438-0.11719 0.19922-0.28906 0.35156-0.51562 0.45312l0.5 0.5625h-0.60938zm-0.0625-2.1406c-0.19922 0-0.35547 0.074219-0.46875 0.21875-0.10547 0.14844-0.15625 0.35547-0.15625 0.625 0 0.27344 0.050781 0.48047 0.15625 0.625 0.10156 0.13672 0.25781 0.20312 0.46875 0.20312 0.19531 0 0.34766-0.070313 0.45312-0.21875 0.11328-0.14453 0.17188-0.34766 0.17188-0.60938 0-0.26953-0.058594-0.47656-0.17188-0.625-0.10547-0.14453-0.25781-0.21875-0.45312-0.21875z"/>
  </symbol>
  <symbol id="y" overflow="visible">
   <path d="m1.4688-2.0938c-0.19922 0-0.35547 0.074219-0.46875 0.21875-0.10547 0.14844-0.15625 0.35547-0.15625 0.625 0 0.26172 0.050781 0.46484 0.15625 0.60938 0.11328 0.14844 0.26953 0.21875 0.46875 0.21875 0.19531 0 0.34766-0.070313 0.45312-0.21875 0.11328-0.14453 0.17188-0.34766 0.17188-0.60938 0-0.26953-0.058594-0.47656-0.17188-0.625-0.10547-0.14453-0.25781-0.21875-0.45312-0.21875zm0-0.46875c0.40625 0 0.72266 0.11719 0.95312 0.34375 0.22656 0.23047 0.34375 0.55469 0.34375 0.96875 0 0.40625-0.11719 0.72656-0.34375 0.95312-0.23047 0.23047-0.54688 0.34375-0.95312 0.34375s-0.72656-0.11328-0.95312-0.34375c-0.23047-0.22656-0.34375-0.54688-0.34375-0.95312 0-0.41406 0.11328-0.73828 0.34375-0.96875 0.22656-0.22656 0.54688-0.34375 0.95312-0.34375z"/>
  </symbol>
  <symbol id="g" overflow="visible">
   <path d="m0.3125-2.5156h0.65625v2.0312h1.1406v0.48438h-1.7969z"/>
  </symbol>
  <symbol id="x" overflow="visible">
   <path d="m1.3281-1.5469c0.10156 0 0.17969-0.019531 0.23438-0.0625 0.050781-0.039063 0.078125-0.10938 0.078125-0.20312 0-0.082031-0.027344-0.14453-0.078125-0.1875-0.054688-0.050781-0.13281-0.078125-0.23438-0.078125h-0.35938v0.53125zm0.015625 1.1094c0.13281 0 0.23438-0.023438 0.29688-0.078125 0.0625-0.0625 0.09375-0.14844 0.09375-0.26562 0-0.10156-0.03125-0.17969-0.09375-0.23438-0.0625-0.050781-0.16406-0.078125-0.29688-0.078125h-0.375v0.65625zm0.60938-0.90625c0.13281 0.042969 0.23828 0.12109 0.3125 0.23438 0.082031 0.10547 0.125 0.23438 0.125 0.39062 0 0.24219-0.085937 0.42188-0.25 0.54688-0.16797 0.11719-0.41797 0.17188-0.75 0.17188h-1.0781v-2.5156h0.98438c0.34375 0 0.59375 0.054687 0.75 0.15625 0.15625 0.10547 0.23438 0.27734 0.23438 0.51562 0 0.11719-0.03125 0.21875-0.09375 0.3125-0.054688 0.085938-0.13281 0.14844-0.23438 0.1875z"/>
  </symbol>
  <symbol id="e" overflow="visible">
   <path d="m0.3125-2.5156h0.65625v2.5156h-0.65625z"/>
  </symbol>
  <symbol id="f" overflow="visible">
   <path d="m0.3125-2.5156h0.73438l0.90625 1.7188v-1.7188h0.625v2.5156h-0.73438l-0.90625-1.7344v1.7344h-0.625z"/>
  </symbol>
  <symbol id="w" overflow="visible">
   <path d="m2.0625-2.4375v0.53125c-0.13672-0.0625-0.27344-0.10938-0.40625-0.14062-0.125-0.03125-0.24609-0.046875-0.35938-0.046875-0.15625 0-0.27344 0.023438-0.34375 0.0625-0.074219 0.042969-0.10938 0.10938-0.10938 0.20312 0 0.0625 0.019531 0.11719 0.0625 0.15625 0.050781 0.042969 0.14453 0.074219 0.28125 0.09375l0.26562 0.0625c0.28125 0.054687 0.47656 0.13672 0.59375 0.25 0.125 0.11719 0.1875 0.27734 0.1875 0.48438 0 0.28125-0.085937 0.49219-0.25 0.625-0.16797 0.13672-0.41797 0.20312-0.75 0.20312-0.15625 0-0.32031-0.015625-0.48438-0.046875-0.15625-0.03125-0.32031-0.070312-0.48438-0.125v-0.54688c0.16406 0.085937 0.32031 0.14844 0.46875 0.1875 0.15625 0.042969 0.30078 0.0625 0.4375 0.0625 0.13281 0 0.23828-0.019531 0.3125-0.0625 0.082031-0.050781 0.125-0.11719 0.125-0.20312 0-0.082031-0.027344-0.14453-0.078125-0.1875-0.054688-0.039062-0.15625-0.078125-0.3125-0.10938l-0.25-0.0625c-0.25-0.050781-0.43359-0.13281-0.54688-0.25-0.11719-0.125-0.17188-0.28516-0.17188-0.48438 0-0.25 0.078125-0.44141 0.23438-0.57812 0.16406-0.13281 0.39844-0.20312 0.70312-0.20312 0.13281 0 0.27344 0.011719 0.42188 0.03125 0.14453 0.023438 0.29688 0.054688 0.45312 0.09375z"/>
  </symbol>
  <symbol id="v" overflow="visible">
   <path d="m1.8438-0.45312h-1.0156l-0.15625 0.45312h-0.65625l0.9375-2.5156h0.76562l0.9375 2.5156h-0.65625zm-0.85938-0.46875h0.70312l-0.34375-1z"/>
  </symbol>
  <symbol id="u" overflow="visible">
   <path d="m0.3125-2.5156h0.82812l0.57812 1.3438 0.57812-1.3438h0.82812v2.5156h-0.625v-1.8438l-0.57812 1.3594h-0.40625l-0.57812-1.3594v1.8438h-0.625z"/>
  </symbol>
  <symbol id="t" overflow="visible">
   <path d="m1.5312-2.625v0.39062h-0.32812c-0.085937 0-0.14844 0.015625-0.1875 0.046875-0.03125 0.03125-0.046875 0.089844-0.046875 0.17188v0.125h0.51562v0.4375h-0.51562v1.4531h-0.60938v-1.4531h-0.29688v-0.4375h0.29688v-0.125c0-0.20703 0.054687-0.35938 0.17188-0.45312 0.11328-0.10156 0.29688-0.15625 0.54688-0.15625z"/>
  </symbol>
  <symbol id="d" overflow="visible">
   <path d="m1.1875-1.5c-0.13672 0-0.24219 0.046875-0.3125 0.14062-0.0625 0.09375-0.09375 0.23438-0.09375 0.42188 0 0.17969 0.03125 0.32031 0.09375 0.42188 0.070312 0.09375 0.17578 0.14062 0.3125 0.14062 0.13281 0 0.23438-0.046875 0.29688-0.14062 0.070313-0.10156 0.10938-0.24219 0.10938-0.42188 0-0.1875-0.039062-0.32812-0.10938-0.42188-0.0625-0.09375-0.16406-0.14062-0.29688-0.14062zm0-0.4375c0.32031 0 0.57031 0.089844 0.75 0.26562 0.1875 0.17969 0.28125 0.42188 0.28125 0.73438 0 0.30469-0.09375 0.54297-0.28125 0.71875-0.17969 0.17969-0.42969 0.26562-0.75 0.26562-0.32422 0-0.57812-0.085938-0.76562-0.26562-0.1875-0.17578-0.28125-0.41406-0.28125-0.71875 0-0.3125 0.09375-0.55469 0.28125-0.73438 0.1875-0.17578 0.44141-0.26562 0.76562-0.26562z"/>
  </symbol>
  <symbol id="s" overflow="visible">
   <path d="m2.0469-1.5781c0.070313-0.11328 0.16016-0.20312 0.26562-0.26562 0.10156-0.0625 0.21875-0.09375 0.34375-0.09375 0.21875 0 0.38281 0.070312 0.5 0.20312 0.11328 0.13672 0.17188 0.32812 0.17188 0.57812v1.1562h-0.60938v-0.98438-0.03125-0.078125c0-0.13281-0.023438-0.23438-0.0625-0.29688-0.03125-0.0625-0.09375-0.09375-0.1875-0.09375-0.11719 0-0.20312 0.046875-0.26562 0.14062s-0.09375 0.23438-0.09375 0.42188v0.92188h-0.60938v-0.98438c0-0.20703-0.023438-0.34375-0.0625-0.40625-0.03125-0.0625-0.09375-0.09375-0.1875-0.09375-0.11719 0-0.20312 0.054687-0.26562 0.15625-0.0625 0.09375-0.09375 0.23047-0.09375 0.40625v0.92188h-0.60938v-1.8906h0.60938v0.28125c0.070313-0.10156 0.15625-0.17969 0.25-0.23438 0.10156-0.0625 0.21094-0.09375 0.32812-0.09375 0.125 0 0.23828 0.03125 0.34375 0.09375 0.10156 0.0625 0.17969 0.15234 0.23438 0.26562z"/>
  </symbol>
  <symbol id="r" overflow="visible">
   <path d="m2.1875-1.1562v1.1562h-0.60938v-0.875c0-0.16406-0.007813-0.28125-0.015625-0.34375 0-0.0625-0.011719-0.10938-0.03125-0.14062-0.023438-0.03125-0.054688-0.054687-0.09375-0.078125-0.042969-0.03125-0.089844-0.046875-0.14062-0.046875-0.125 0-0.22656 0.054687-0.29688 0.15625-0.074219 0.09375-0.10938 0.23047-0.10938 0.40625v0.92188h-0.59375v-2.625h0.59375v1.0156c0.09375-0.11328 0.19141-0.19531 0.29688-0.25 0.10156-0.050781 0.21094-0.078125 0.32812-0.078125 0.21875 0 0.38281 0.070312 0.5 0.20312 0.11328 0.13672 0.17188 0.32812 0.17188 0.57812z"/>
  </symbol>
  <symbol id="q" overflow="visible">
   <path d="m0.26562-0.73438v-1.1562h0.60938v0.1875 0.39062 0.3125 0.32812c0.007812 0.0625 0.023438 0.10938 0.046875 0.14062 0.03125 0.042969 0.0625 0.074219 0.09375 0.09375 0.039063 0.023438 0.085937 0.03125 0.14062 0.03125 0.125 0 0.22266-0.046875 0.29688-0.14062 0.070313-0.10156 0.10938-0.23828 0.10938-0.40625v-0.9375h0.60938v1.8906h-0.60938v-0.26562c-0.09375 0.10547-0.19531 0.18359-0.29688 0.23438-0.09375 0.050781-0.20312 0.078125-0.32812 0.078125-0.21875 0-0.38672-0.066406-0.5-0.20312-0.11719-0.13281-0.17188-0.32812-0.17188-0.57812z"/>
  </symbol>
  <symbol id="p" overflow="visible">
   <path d="m2.1875-1.1562v1.1562h-0.60938v-0.875c0-0.16406-0.007813-0.28125-0.015625-0.34375 0-0.0625-0.011719-0.10938-0.03125-0.14062-0.023438-0.03125-0.054688-0.054687-0.09375-0.078125-0.042969-0.03125-0.089844-0.046875-0.14062-0.046875-0.125 0-0.22656 0.054687-0.29688 0.15625-0.074219 0.09375-0.10938 0.23047-0.10938 0.40625v0.92188h-0.59375v-1.8906h0.59375v0.28125c0.09375-0.11328 0.19141-0.19531 0.29688-0.25 0.10156-0.050781 0.21094-0.078125 0.32812-0.078125 0.21875 0 0.38281 0.070312 0.5 0.20312 0.11328 0.13672 0.17188 0.32812 0.17188 0.57812z"/>
  </symbol>
  <symbol id="o" overflow="visible">
   <path d="m0.3125-2.5156h1.0781c0.32031 0 0.56641 0.074219 0.73438 0.21875 0.17578 0.13672 0.26562 0.33594 0.26562 0.59375 0 0.27344-0.089844 0.48047-0.26562 0.625-0.16797 0.13672-0.41406 0.20312-0.73438 0.20312h-0.42188v0.875h-0.65625zm0.65625 0.46875v0.70312h0.35938c0.125 0 0.21875-0.03125 0.28125-0.09375 0.070313-0.0625 0.10938-0.14844 0.10938-0.26562 0-0.10156-0.039062-0.1875-0.10938-0.25-0.0625-0.0625-0.15625-0.09375-0.28125-0.09375z"/>
  </symbol>
  <symbol id="n" overflow="visible">
   <path d="m0.29688-1.8906h0.59375v1.8594c0 0.25-0.0625 0.44141-0.1875 0.57812-0.11719 0.13281-0.28906 0.20312-0.51562 0.20312h-0.29688v-0.40625h0.09375c0.11328 0 0.19141-0.027344 0.23438-0.078125 0.050781-0.054687 0.078125-0.15234 0.078125-0.29688zm0-0.73438h0.59375v0.5h-0.59375z"/>
  </symbol>
  <symbol id="m" overflow="visible">
   <path d="m1.8125-1.8281v0.48438c-0.085938-0.050781-0.16797-0.085938-0.25-0.10938-0.085938-0.03125-0.16797-0.046875-0.25-0.046875-0.16797 0-0.29688 0.054688-0.39062 0.15625-0.09375 0.09375-0.14062 0.23047-0.14062 0.40625 0 0.17969 0.046875 0.32031 0.14062 0.42188 0.09375 0.09375 0.22266 0.14062 0.39062 0.14062 0.09375 0 0.17969-0.015625 0.26562-0.046875 0.082031-0.03125 0.16016-0.070313 0.23438-0.125v0.48438c-0.09375 0.042969-0.19531 0.066406-0.29688 0.078125-0.09375 0.019531-0.1875 0.03125-0.28125 0.03125-0.34375 0-0.61719-0.082031-0.8125-0.25-0.1875-0.17578-0.28125-0.42188-0.28125-0.73438s0.09375-0.55469 0.28125-0.73438c0.19531-0.17578 0.46875-0.26562 0.8125-0.26562 0.10156 0 0.20312 0.011719 0.29688 0.03125 0.09375 0.023438 0.1875 0.046875 0.28125 0.078125z"/>
  </symbol>
 </defs>
 <g>
  <path d="m496.55 259.31-92.414 90.344c0-83.449 0.69141-170.34 0.69141-255.17 6.207 5.5156 10.344 13.793 10.344 22.758v206.21l92.414-90.344v171.04l-157.24 155.86-156.55-154.48-1.3789-1.3789v-171.04l92.414 90.344v-206.21c0-9.6562 4.1367-17.93 11.035-23.449v255.86l-92.414-90.344v140l146.9 144.83 146.21-144.83v-140z"/>
  <path d="m367.61 320.02v-266.57h12.996v266.57z" fill-rule="evenodd"/>
  <path d="m326.09 241.09v-241.09h12.996v241.09z" fill-rule="evenodd"/>
  <use x="192.414062" y="570.34375" xlink:href="#z"/>
  <use x="194.945312" y="570.34375" xlink:href="#c"/>
  <use x="196.644531" y="570.34375" xlink:href="#a"/>
  <use x="198.984375" y="570.34375" xlink:href="#l"/>
  <use x="201.3125" y="570.34375" xlink:href="#b"/>
  <use x="202.957031" y="570.34375" xlink:href="#a"/>
  <use x="205.296875" y="570.34375" xlink:href="#k"/>
  <use x="208.964844" y="570.34375" xlink:href="#j"/>
  <use x="211.433594" y="570.34375" xlink:href="#i"/>
  <use x="214.882813" y="570.34375" xlink:href="#h"/>
  <use x="217.816406" y="570.34375" xlink:href="#y"/>
  <use x="220.746094" y="570.34375" xlink:href="#g"/>
  <use x="222.941406" y="570.34375" xlink:href="#x"/>
  <use x="225.570312" y="570.34375" xlink:href="#e"/>
  <use x="226.855469" y="570.34375" xlink:href="#f"/>
  <use x="230.941406" y="570.34375" xlink:href="#w"/>
  <use x="233.425781" y="570.34375" xlink:href="#v"/>
  <use x="236.09375" y="570.34375" xlink:href="#g"/>
  <use x="238.289062" y="570.34375" xlink:href="#e"/>
  <use x="239.574219" y="570.34375" xlink:href="#e"/>
  <use x="240.855469" y="570.34375" xlink:href="#u"/>
  <use x="192.414062" y="573.792969" xlink:href="#t"/>
  <use x="193.914062" y="573.792969" xlink:href="#c"/>
  <use x="195.613281" y="573.792969" xlink:href="#d"/>
  <use x="197.984375" y="573.792969" xlink:href="#s"/>
  <use x="202.777344" y="573.792969" xlink:href="#b"/>
  <use x="204.425781" y="573.792969" xlink:href="#r"/>
  <use x="206.878906" y="573.792969" xlink:href="#a"/>
  <use x="210.417969" y="573.792969" xlink:href="#f"/>
  <use x="213.304688" y="573.792969" xlink:href="#d"/>
  <use x="215.675781" y="573.792969" xlink:href="#q"/>
  <use x="218.128906" y="573.792969" xlink:href="#p"/>
  <use x="221.785156" y="573.792969" xlink:href="#o"/>
  <use x="224.3125" y="573.792969" xlink:href="#c"/>
  <use x="226.011719" y="573.792969" xlink:href="#d"/>
  <use x="228.382812" y="573.792969" xlink:href="#n"/>
  <use x="229.5625" y="573.792969" xlink:href="#a"/>
  <use x="231.902344" y="573.792969" xlink:href="#m"/>
  <use x="233.945313" y="573.792969" xlink:href="#b"/>
 </g>
</svg>
